<?xml version="1.0" encoding="UTF-8"?>
<svg version="1.1" xmlns="http://www.w3.org/2000/svg" width="268" height="268">
<path d="M0 0 C1.36900703 -0.01354271 1.36900703 -0.01354271 2.76567078 -0.02735901 C4.68920669 -0.04177224 6.61279063 -0.05072582 8.53637695 -0.05444336 C11.40470832 -0.06622345 14.27080011 -0.11539886 17.13867188 -0.16601562 C36.45384703 -0.33545609 53.8828498 3.73472577 71.13671875 12.37109375 C72.25304687 12.91636719 73.369375 13.46164062 74.51953125 14.0234375 C92.52448231 23.24284015 107.96749952 36.22579299 120.13671875 52.37109375 C121.00490234 53.48097656 121.00490234 53.48097656 121.890625 54.61328125 C136.09869024 73.66725273 146.41049955 98.42709094 146.47265625 122.375 C146.47931305 123.29715805 146.48596985 124.2193161 146.49282837 125.16941833 C146.50288472 127.10975169 146.50764759 129.05011913 146.50732422 130.99047852 C146.51167227 133.90246201 146.54799825 136.81289541 146.5859375 139.72460938 C146.75129077 167.11206437 137.42678132 191.98960694 121.82421875 214.37109375 C121.4159082 214.96486816 121.00759766 215.55864258 120.58691406 216.17041016 C118.30050303 219.32197507 116.94641442 220.67450944 113.13671875 221.37109375 C110.92592191 219.01923047 108.71855139 216.66417668 106.51171875 214.30859375 C105.89425781 213.65181641 105.27679688 212.99503906 104.640625 212.31835938 C100.68789362 208.09517795 96.87087962 203.7888933 93.13671875 199.37109375 C94.3811744 195.9958013 95.79432024 193.22782715 97.88671875 190.30859375 C112.47992956 168.59587961 117.54705683 141.15549855 112.81640625 115.4609375 C108.8408344 97.38807927 101.68498972 81.80975221 90.13671875 67.37109375 C89.68409668 66.79649414 89.23147461 66.22189453 88.76513672 65.62988281 C85.13177569 61.1841008 81.1413976 57.74672645 76.51171875 54.37109375 C75.80297607 53.85200439 75.0942334 53.33291504 74.36401367 52.7980957 C51.08925335 35.95538416 23.38924835 28.78062492 -5.22290039 33.14331055 C-31.7956201 37.94360808 -56.14698599 53.1706136 -72.06347656 75.01855469 C-87.83459757 97.95244742 -93.21333171 126.23366946 -88.80078125 153.55859375 C-83.08333164 179.63443869 -68.94843883 203.84499114 -46.33984375 218.7890625 C-45.11394531 219.57216797 -45.11394531 219.57216797 -43.86328125 220.37109375 C-43.10789062 220.88285156 -42.3525 221.39460937 -41.57421875 221.921875 C-25.76353648 232.15387172 -6.2642163 236.60244263 12.38671875 236.49609375 C13.21212158 236.49416016 14.03752441 236.49222656 14.88793945 236.49023438 C21.33782548 236.44493228 27.72414501 236.08786846 34.13671875 235.37109375 C36.86052652 241.74800841 39.20393867 248.25101276 41.44921875 254.80859375 C41.8671167 255.998479 41.8671167 255.998479 42.29345703 257.21240234 C42.6741333 258.340896 42.6741333 258.340896 43.0625 259.4921875 C43.29364502 260.16693115 43.52479004 260.8416748 43.76293945 261.53686523 C44.13671875 263.37109375 44.13671875 263.37109375 43.13671875 266.37109375 C37.22437354 268.85521124 30.31778485 268.69116413 24.01171875 268.70703125 C23.06594971 268.71368805 22.12018066 268.72034485 21.14575195 268.72720337 C19.15236333 268.73727368 17.15894138 268.74202214 15.16552734 268.74169922 C12.17225934 268.74604218 9.18050507 268.78233896 6.1875 268.8203125 C-9.63670346 268.91496016 -23.57962176 266.69671132 -38.23828125 260.49609375 C-39.08350342 260.14587158 -39.92872559 259.79564941 -40.79956055 259.43481445 C-72.709268 246.00318959 -99.01742877 220.02921397 -112.80419922 188.19873047 C-114.76998393 183.34123993 -116.45796975 178.41949188 -117.86328125 173.37109375 C-118.3752002 171.61949951 -118.3752002 171.61949951 -118.89746094 169.83251953 C-121.89260911 158.94018675 -122.48535433 148.48569947 -122.38476562 137.22363281 C-122.36329925 134.37348408 -122.38470042 131.52585479 -122.41015625 128.67578125 C-122.46427629 93.29542903 -106.45487544 61.26122019 -81.86328125 36.37109375 C-60.88353163 15.72238555 -29.70643885 0.18853869 0 0 Z " fill="#000000" transform="translate(121.86328125,-0.37109375)"/>
<path d="M0 0 C24.58856998 -0.61291157 46.59621705 8.23236712 64.41259766 24.96606445 C80.81780538 40.94101715 90.40036926 61.37482624 90.8828125 84.28417969 C91.06848821 105.22491843 87.19481314 121.63746779 75.5390625 139.12109375 C71.05884106 138.71477295 68.6200283 135.60402971 65.7265625 132.49609375 C65.21158203 131.98691406 64.69660156 131.47773438 64.16601562 130.953125 C61.46031144 128.06269402 60.53598808 126.58533167 60.5625 122.58203125 C61.47920115 119.33324239 62.55365456 116.42802357 63.9765625 113.37109375 C71.28212788 96.31069829 69.97675999 77.7957768 63.21875 60.80078125 C55.82016192 44.99286901 43.31610289 33.05547287 26.9765625 26.87109375 C10.18041295 20.89680031 -8.57106222 20.97256702 -24.81225586 28.47949219 C-42.87499293 37.25028274 -53.46875233 50.71836273 -60.625 69.11328125 C-65.64859062 85.68643537 -62.8806506 104.01675164 -55.7109375 119.43359375 C-46.63036403 136.40833411 -32.94740994 146.33205611 -14.9765625 152.140625 C-8.07863465 154.06438043 -1.70028373 154.24625398 5.4140625 154.18359375 C6.87585938 154.17682617 6.87585938 154.17682617 8.3671875 154.16992188 C10.75787684 154.15820281 13.1484369 154.14179594 15.5390625 154.12109375 C16.57457295 157.05362721 17.58988088 159.99276313 18.6015625 162.93359375 C18.89611328 163.76697266 19.19066406 164.60035156 19.49414062 165.45898438 C19.76806641 166.26142578 20.04199219 167.06386719 20.32421875 167.890625 C20.58082275 168.62901611 20.83742676 169.36740723 21.10180664 170.12817383 C21.5390625 172.12109375 21.5390625 172.12109375 20.5390625 175.12109375 C-1.29214886 180.04880214 -24.38340042 175.22704594 -43.4609375 164.12109375 C-48.09208131 161.13380171 -52.30440644 157.73117177 -56.4609375 154.12109375 C-57.20730469 153.47527344 -57.95367187 152.82945312 -58.72265625 152.1640625 C-75.19651503 136.79061865 -84.40284565 114.38658636 -85.4609375 92.12109375 C-85.93903375 67.63611967 -77.63852005 45.46020651 -60.8671875 27.48925781 C-44.6579162 10.78580141 -23.28172857 1.14560887 0 0 Z " fill="#000000" transform="translate(129.4609375,45.87890625)"/>
<path d="M0 0 C2.97325963 1.3262774 4.94079346 2.73033112 7.13671875 5.125 C7.99547607 6.0533667 7.99547607 6.0533667 8.87158203 7.00048828 C9.47083496 7.66032715 10.07008789 8.32016602 10.6875 9 C11.62505127 10.01876221 11.62505127 10.01876221 12.58154297 11.05810547 C16.66615319 15.50551091 20.71316132 19.98699187 24.73828125 24.48828125 C28.92998162 29.14331292 33.19639373 33.72979818 37.45166016 38.32666016 C39.97037031 41.04870989 42.4850327 43.7744926 45 46.5 C48.01098786 49.76239454 51.02235528 53.02443595 54.03515625 56.28515625 C58.82634 61.47161652 63.61047951 66.66402371 68.375 71.875 C72.63501626 76.5301482 76.93621781 81.14468449 81.25 85.75 C85.37583013 90.1582399 89.48793563 94.56560886 93.3984375 99.16796875 C94.63432707 100.58170584 95.92071075 101.95140111 97.2265625 103.30078125 C97.97679687 104.08839844 98.72703125 104.87601562 99.5 105.6875 C100.1909375 106.39261719 100.881875 107.09773438 101.59375 107.82421875 C103 110 103 110 103.0234375 112.5 C101.67311628 115.79849457 99.93602506 117.13455282 97.125 119.3125 C96.11953125 120.09238281 95.1140625 120.87226563 94.078125 121.67578125 C93.06234375 122.44277344 92.0465625 123.20976562 91 124 C90.14921875 124.67417969 89.2984375 125.34835938 88.421875 126.04296875 C78.08969779 133.98226443 60.48922679 146 47 146 C37.60323089 118.87252293 28.56374713 91.63325096 19.64892578 64.34448242 C18.75961741 61.62282614 17.87011157 58.90123448 16.98046875 56.1796875 C16.7640699 55.51755312 16.54767105 54.85541874 16.32471466 54.17321968 C13.58456531 45.79240812 10.81377805 37.42277553 7.98828125 29.0703125 C7.69675171 28.20660538 7.40522217 27.34289825 7.1048584 26.45301819 C5.81253933 22.62695904 4.51286676 18.80372723 3.19873047 14.98510742 C2.76112201 13.69459064 2.32376528 12.40398845 1.88671875 11.11328125 C1.51764404 10.03860596 1.14856934 8.96393066 0.76831055 7.85668945 C0.02425261 5.09017471 -0.15852631 2.84723752 0 0 Z " fill="#000000" transform="translate(127,117)"/>
<path d="M0 0 C3.5042886 1.56382973 6.24860574 3.68569756 9.25 6.0625 C18.15978 12.83787325 27.97448506 18.06483939 38 23 C34.37432364 24.20855879 33.13528503 23.41228623 29.80761719 21.80200195 C29.12860352 21.45484131 28.44958984 21.10768066 27.75 20.75 C27.0477832 20.39446045 26.34556641 20.0389209 25.62207031 19.67260742 C20.38344452 16.92625141 15.52449657 13.79890442 10.75 10.3125 C10.13092773 9.86165039 9.51185547 9.41080078 8.87402344 8.94628906 C5.36183966 6.2932006 2.61361418 3.59048483 0 0 Z " fill="#0B0B0B" transform="translate(44,234)"/>
<path d="M0 0 C-0.33 0.99 -0.66 1.98 -1 3 C-9.65536636 5.99003565 -18.96163686 5.1755022 -28 5 C-28 4.67 -28 4.34 -28 4 C-27.42556152 3.9498877 -26.85112305 3.89977539 -26.25927734 3.84814453 C-23.63046114 3.61455437 -21.00278849 3.36987042 -18.375 3.125 C-17.47136719 3.04636719 -16.56773437 2.96773438 -15.63671875 2.88671875 C-10.41375245 2.39110881 -5.03691753 0 0 0 Z " fill="#181818" transform="translate(166,263)"/>
</svg>
