<svg width="560" height="140" viewBox="0 0 560 140" fill="none" xmlns="http://www.w3.org/2000/svg">
<path d="M75.0662 105.238C73.1444 105.561 71.1744 105.734 69.1631 105.734C49.5803 105.734 33.6551 89.8015 33.6551 70.2256C33.6551 50.6428 49.5872 34.7176 69.1631 34.7176C88.7459 34.7176 104.671 50.6497 104.671 70.2256C104.671 77.0242 102.749 83.375 99.4224 88.7821L102.86 92.5223L106.248 96.2074C111.421 88.8441 114.473 79.8896 114.473 70.2325C114.473 45.2495 94.1462 24.9297 69.17 24.9297C44.187 24.9297 23.8672 45.2564 23.8672 70.2325C23.8672 95.2156 44.1939 115.542 69.17 115.542C72.249 115.542 75.2591 115.232 78.1727 114.64L76.6229 109.942L75.0662 105.238Z" fill="black"/>
<path d="M119.672 119.278L109.161 107.837L102.631 100.735L99.3107 97.1256L95.9631 93.4818L66.6406 61.5625L80.6096 103.841L82.1457 108.498L83.6817 113.14L86.5816 121.923L91.4446 136.649L91.4652 136.698C102.321 133.309 112.054 127.378 119.968 119.601L119.672 119.278Z" fill="black"/>
<path d="M70.0034 0C31.4027 0 0 31.4027 0 69.9966C0 81.9129 3.0032 93.1405 8.27258 102.97C20.0787 124.984 43.3191 140 69.9966 140C75.4313 140 80.7144 139.353 85.7978 138.182C85.8529 138.168 85.9011 138.154 85.9562 138.147L81.0726 123.358C77.4977 124.102 73.7919 124.495 69.9966 124.495C39.9508 124.495 15.505 100.049 15.505 70.0034C15.505 39.9577 39.9508 15.5119 69.9966 15.5119C100.042 15.5119 124.488 39.9577 124.488 70.0034C124.488 82.6086 120.169 94.2219 112.957 103.466L123.558 115.003C133.808 102.825 140 87.1272 140 70.0034C140 31.4027 108.604 0 70.0034 0Z" fill="black"/>
<path d="M85.7891 138.16C85.8446 138.146 85.8933 138.139 85.9488 138.125C85.8933 138.139 85.8446 138.153 85.7891 138.16Z" fill="black"/>
<path d="M498 26C498 24.3431 499.343 23 501 23H546C553.732 23 560 29.268 560 37H501C499.343 37 498 35.6569 498 34V26Z" fill="black"/>
<path d="M498 72H560V86H512C504.268 86 498 79.732 498 72Z" fill="black"/>
<path d="M546 37H560V72H546V37Z" fill="black"/>
<path d="M498 23H512V72H498V23Z" fill="black"/>
<path d="M315 72H377C377 79.732 370.732 86 363 86H329C321.268 86 315 79.732 315 72Z" fill="black"/>
<path d="M363 23H377V72H363V23Z" fill="black"/>
<path d="M315 23H329V72H315V23Z" fill="black"/>
<path d="M161 37C161 29.268 167.268 23 175 23H223V37H161Z" fill="black"/>
<path d="M161 48H223V62H161V48Z" fill="black"/>
<path d="M161 72H223C223 79.732 216.732 86 209 86H161V72Z" fill="black"/>
<path d="M209 48H223V72H209V48Z" fill="black"/>
<path d="M161 36H175V62H164C162.343 62 161 60.6569 161 59V36Z" fill="black"/>
<path d="M238 26C238 24.3431 239.343 23 241 23H300V34C300 35.6569 298.657 37 297 37H238V26Z" fill="black"/>
<path d="M262 37H276V83C276 84.6569 274.657 86 273 86H262V37Z" fill="black"/>
<path d="M392 26C392 24.3431 393.343 23 395 23H440C447.732 23 454 29.268 454 37H395C393.343 37 392 35.6569 392 34V26Z" fill="black"/>
<path d="M392 72H454V83C454 84.6569 452.657 86 451 86H392V72Z" fill="black"/>
<path d="M440 37H454V72H440V37Z" fill="black"/>
<path d="M392 48H406V86H392V48Z" fill="black"/>
<path d="M469 23H480C481.657 23 483 24.3431 483 26V86H472C470.343 86 469 84.6569 469 83V23Z" fill="black"/>
<path d="M330.844 99.0078H348.002C348.484 99.0078 348.875 99.3984 348.875 99.8803V103.079H331.716C331.234 103.079 330.844 102.689 330.844 102.207V99.0078Z" fill="black"/>
<path d="M330.844 107.154C330.844 106.672 331.234 106.281 331.716 106.281H348.002C348.484 106.281 348.875 106.672 348.875 107.154V109.48C348.875 109.962 348.484 110.353 348.002 110.353H331.716C331.234 110.353 330.844 109.962 330.844 109.48V107.154Z" fill="black"/>
<path d="M330.844 114.13C330.844 113.648 331.234 113.258 331.716 113.258H348.002C348.484 113.258 348.875 113.648 348.875 114.13V117.329H331.716C331.234 117.329 330.844 116.939 330.844 116.457V114.13Z" fill="black"/>
<path d="M330.844 106.281H334.915V117.332H331.716C331.234 117.332 330.844 116.942 330.844 116.46V106.281Z" fill="black"/>
<path d="M358.398 99.0078H375.557C376.039 99.0078 376.429 99.3984 376.429 99.8803V103.079H359.271C358.789 103.079 358.398 102.689 358.398 102.207V99.0078Z" fill="black"/>
<path d="M358.398 107.154C358.398 106.672 358.789 106.281 359.271 106.281H375.557C376.039 106.281 376.429 106.672 376.429 107.154V109.48C376.429 109.962 376.039 110.353 375.557 110.353H359.271C358.789 110.353 358.398 109.962 358.398 109.48V107.154Z" fill="black"/>
<path d="M358.398 114.13C358.398 113.648 358.789 113.258 359.271 113.258H375.557C376.039 113.258 376.429 113.648 376.429 114.13V117.329H359.271C358.789 117.329 358.398 116.939 358.398 116.457V114.13Z" fill="black"/>
<path d="M358.398 106.281H362.47V117.332H359.271C358.789 117.332 358.398 116.942 358.398 116.46V106.281Z" fill="black"/>
<path d="M303.289 100.753C303.289 99.7891 304.07 99.0078 305.034 99.0078H320.447C320.929 99.0078 321.32 99.3984 321.32 99.8803V103.079H303.289V100.753Z" fill="black"/>
<path d="M303.289 107.154C303.289 106.672 303.68 106.281 304.162 106.281H320.447C320.929 106.281 321.32 106.672 321.32 107.154V109.48C321.32 109.962 320.929 110.353 320.447 110.353H304.162C303.68 110.353 303.289 109.962 303.289 109.48V107.154Z" fill="black"/>
<path d="M303.289 113.258H320.447C320.929 113.258 321.32 113.648 321.32 114.13V117.329H304.162C303.68 117.329 303.289 116.939 303.289 116.457V113.258Z" fill="black"/>
<path d="M303.289 103.078H307.361V110.058H304.162C303.68 110.058 303.289 109.667 303.289 109.185V103.078Z" fill="black"/>
<path d="M317.242 106.281H320.441C320.923 106.281 321.314 106.672 321.314 107.154V116.46C321.314 116.942 320.923 117.332 320.441 117.332H318.115C317.633 117.332 317.242 116.942 317.242 116.46V106.281Z" fill="black"/>
<path d="M248.5 114.146C248.5 113.664 248.891 113.273 249.373 113.273H265.658C266.14 113.273 266.531 113.664 266.531 114.146V117.345H249.373C248.891 117.345 248.5 116.954 248.5 116.472V114.146Z" fill="black"/>
<path d="M248.5 99.8959C248.5 99.4141 248.891 99.0234 249.373 99.0234H252.571V117.345H249.373C248.891 117.345 248.5 116.954 248.5 116.473V99.8959Z" fill="black"/>
<path d="M276.062 99.8959C276.062 99.4141 276.453 99.0234 276.935 99.0234H290.022C292.27 99.0234 294.093 100.846 294.093 103.095H276.935C276.453 103.095 276.062 102.704 276.062 102.222V99.8959Z" fill="black"/>
<path d="M276.062 113.273H294.093V116.472C294.093 116.954 293.703 117.345 293.221 117.345H276.062V113.273Z" fill="black"/>
<path d="M290.016 103.094H294.087V113.272H290.016V103.094Z" fill="black"/>
<path d="M276.062 106.297H280.134V117.348H276.062V106.297Z" fill="black"/>
<path d="M192.344 99.8959C192.344 99.4141 192.734 99.0234 193.216 99.0234H206.303C208.552 99.0234 210.375 100.846 210.375 103.095H193.216C192.734 103.095 192.344 102.704 192.344 102.222V99.8959Z" fill="black"/>
<path d="M196.438 113.273H210.397V116.472C210.397 116.954 210.006 117.345 209.524 117.345H196.438V113.273Z" fill="black"/>
<path d="M206.297 103.094H210.368V113.272H206.297V103.094Z" fill="black"/>
<path d="M192.344 99.8959C192.344 99.4141 192.734 99.0234 193.216 99.0234H196.415V117.345C194.167 117.345 192.344 115.522 192.344 113.274V99.8959Z" fill="black"/>
<path d="M385.961 99.8725C385.961 99.3906 386.352 99 386.833 99H390.032V116.449C390.032 116.931 389.642 117.322 389.16 117.322H385.961V99.8725Z" fill="black"/>
<path d="M392.367 108.016H396.801L404 117.322H399.719C399.443 117.322 399.183 117.191 399.018 116.97L392.367 108.016Z" fill="black"/>
<path d="M392.367 108.016H396.801L404 99.0002H399.711C399.439 99.0002 399.183 99.1265 399.018 99.3418L392.367 108.016Z" fill="black"/>
<path d="M182.813 100.793L182.813 116.479C182.813 116.961 182.422 117.352 181.94 117.352L179.173 117.352L171.761 110.448L164.644 117.352L161.874 117.352C161.392 117.352 161.001 116.961 161.001 116.479L161.001 100.775C161.001 99.8112 161.782 99.0299 162.746 99.0299L165.181 99.0299L165.181 110.448L169.699 106.3L174.114 106.3L178.632 110.47L178.632 99.0484L181.067 99.0484C182.031 99.0484 182.813 99.8297 182.813 100.793Z" fill="black"/>
<path d="M219.93 99.0234H234.42C236.375 99.0234 237.961 100.609 237.961 102.564C237.961 102.857 237.723 103.095 237.429 103.095H219.93V99.0234Z" fill="black"/>
<path d="M219.93 109.495C219.93 109.977 220.32 110.367 220.802 110.367H234.532C236.425 110.367 237.961 108.832 237.961 106.939C237.961 106.584 237.673 106.296 237.318 106.296H220.802C220.32 106.296 219.93 106.686 219.93 107.168V109.495Z" fill="black"/>
<path d="M219.93 106.297H224.001V117.348H220.802C220.32 117.348 219.93 116.957 219.93 116.476V106.297Z" fill="black"/>
<path d="M230.109 110.07H234.617L238.979 117.341H234.692C234.376 117.341 234.085 117.17 233.931 116.895L230.109 110.07Z" fill="black"/>
<rect x="234.18" y="102.523" width="3.78066" height="4.65312" fill="black"/>
</svg>
