<svg width="783" height="208" viewBox="0 0 783 208" fill="none" xmlns="http://www.w3.org/2000/svg">
<path d="M111.269 155.992C108.421 156.472 105.501 156.727 102.519 156.727C73.4921 156.727 49.8864 133.111 49.8864 104.094C49.8864 75.0668 73.5023 51.4612 102.519 51.4612C131.547 51.4612 155.152 75.0771 155.152 104.094C155.152 114.171 152.304 123.585 147.372 131.6L152.467 137.144L157.49 142.607C165.158 131.692 169.681 118.419 169.681 104.104C169.681 67.0724 139.551 36.9526 102.53 36.9526C65.4977 36.9526 35.3779 67.0826 35.3779 104.104C35.3779 141.136 65.5079 171.266 102.53 171.266C107.094 171.266 111.555 170.807 115.874 169.929L113.577 162.965L111.269 155.992Z" fill="black"/>
<path d="M177.388 176.803L161.807 159.844L152.128 149.318L147.207 143.968L142.245 138.566L98.7803 91.2529L119.486 153.922L121.763 160.824L124.04 167.706L128.338 180.724L135.547 202.553L135.577 202.624C151.668 197.601 166.095 188.81 177.827 177.283L177.388 176.803Z" fill="black"/>
<path d="M103.765 0C46.5477 0 0 46.5477 0 103.755C0 121.418 4.4516 138.061 12.2623 152.63C29.7624 185.262 64.2112 207.52 103.755 207.52C111.811 207.52 119.642 206.56 127.177 204.824C127.258 204.804 127.33 204.783 127.412 204.773L120.173 182.852C114.874 183.955 109.381 184.537 103.755 184.537C59.2184 184.537 22.9829 148.301 22.9829 103.765C22.9829 59.2286 59.2184 22.9931 103.755 22.9931C148.291 22.9931 184.527 59.2286 184.527 103.765C184.527 122.449 178.125 139.664 167.435 153.366L183.148 170.467C198.341 152.416 207.52 129.147 207.52 103.765C207.52 46.5477 160.982 0 103.765 0Z" fill="black"/>
<path d="M127.164 204.792C127.246 204.772 127.318 204.761 127.4 204.741C127.318 204.761 127.246 204.782 127.164 204.792Z" fill="black"/>
<path d="M240.129 38.5396C240.129 36.0837 242.12 34.0928 244.576 34.0928H260.881V123.03C260.881 125.486 258.89 127.477 256.434 127.477H240.129V38.5396Z" fill="black"/>
<path d="M272.739 80.0435H295.338L332.031 127.477H310.21C308.803 127.477 307.479 126.811 306.64 125.681L272.739 80.0435Z" fill="black"/>
<path d="M272.739 80.0435H295.338L332.031 34.0927H310.168C308.785 34.0927 307.48 34.7361 306.639 35.8336L272.739 80.0435Z" fill="black"/>
<path d="M352.783 123.03C352.783 125.486 354.774 127.477 357.23 127.477H428.458C437.42 127.477 444.685 120.211 444.685 111.249C444.685 109.569 443.323 108.207 441.642 108.207H357.23C354.774 108.207 352.783 110.198 352.783 112.654V123.03Z" fill="black"/>
<path d="M425.415 96.3487C425.415 93.8928 427.406 91.9019 429.862 91.9019H440.238C442.694 91.9019 444.685 93.8928 444.685 96.3487V111.172H425.415V96.3487Z" fill="black"/>
<rect x="352.783" y="53.3623" width="19.2697" height="57.8091" fill="black"/>
<path d="M352.783 34.0928H427.929C437.183 34.0928 444.685 41.5948 444.685 50.849C444.685 52.2372 443.56 53.3625 442.171 53.3625H352.783V34.0928Z" fill="black"/>
<path d="M382.429 84.4907C382.429 86.9466 384.42 88.9375 386.876 88.9375H428.458C437.42 88.9375 444.685 81.6724 444.685 72.7104C444.685 71.03 443.322 69.6678 441.642 69.6678H386.876C384.42 69.6678 382.429 71.6587 382.429 74.1147V84.4907Z" fill="black"/>
<rect x="425.415" y="50.3979" width="19.2697" height="22.2343" fill="black"/>
<path d="M486.188 71.1499H536.586V90.4196H486.188V71.1499Z" fill="black"/>
<path d="M486.188 34.0928H536.586V54.8448H486.188V34.0928Z" fill="black"/>
<path d="M536.586 34.0928C548.047 34.0928 557.338 43.3837 557.338 54.8447V127.477H541.033C538.577 127.477 536.586 125.486 536.586 123.03V41.5042V34.0928Z" fill="black"/>
<path d="M465.437 54.8447C465.437 43.3837 474.728 34.0928 486.189 34.0928V127.477H469.883C467.427 127.477 465.437 125.486 465.437 123.03V70.4087V54.8447Z" fill="black"/>
<path d="M578.09 54.8448C578.09 43.3838 587.381 34.0928 598.842 34.0928H669.991V54.8448H578.09Z" fill="black"/>
<path d="M578.09 71.1499H669.991V91.9019H578.09V71.1499Z" fill="black"/>
<path d="M578.09 106.725H669.991C669.991 118.186 660.7 127.477 649.239 127.477H578.09V106.725Z" fill="black"/>
<path d="M649.24 71.1499H669.992V106.725H649.24V71.1499Z" fill="black"/>
<path d="M578.09 53.3623H598.842V91.9017H582.537C580.081 91.9017 578.09 89.9108 578.09 87.4548V53.3623Z" fill="black"/>
<path d="M690.744 34.0928H778.199C780.655 34.0928 782.646 36.0837 782.646 38.5396V54.8448H695.191C692.735 54.8448 690.744 52.8538 690.744 50.3979V34.0928Z" fill="black"/>
<path d="M690.744 75.5968C690.744 73.1408 692.735 71.1499 695.191 71.1499H778.199C780.655 71.1499 782.646 73.1408 782.646 75.5968V87.455C782.646 89.911 780.655 91.9019 778.199 91.9019H695.191C692.735 91.9019 690.744 89.911 690.744 87.455V75.5968Z" fill="black"/>
<path d="M690.744 111.171C690.744 108.716 692.735 106.725 695.191 106.725H778.199C780.655 106.725 782.646 108.716 782.646 111.171V127.477H695.191C692.735 127.477 690.744 125.486 690.744 123.03V111.171Z" fill="black"/>
<path d="M690.744 71.1499H711.496V127.477H695.191C692.735 127.477 690.744 125.486 690.744 123.03V71.1499Z" fill="black"/>
<path d="M491.887 146.757H517.32C518.035 146.757 518.614 147.336 518.614 148.051V152.792H493.18C492.466 152.792 491.887 152.213 491.887 151.499V146.757Z" fill="black"/>
<path d="M491.887 158.832C491.887 158.118 492.466 157.539 493.18 157.539H517.32C518.035 157.539 518.614 158.118 518.614 158.832V162.28C518.614 162.995 518.035 163.574 517.32 163.574H493.18C492.466 163.574 491.887 162.995 491.887 162.28V158.832Z" fill="black"/>
<path d="M491.887 169.173C491.887 168.459 492.466 167.88 493.18 167.88H517.32C518.035 167.88 518.614 168.459 518.614 169.173V173.915H493.18C492.466 173.915 491.887 173.336 491.887 172.622V169.173Z" fill="black"/>
<path d="M491.887 157.539H497.922V173.92H493.18C492.466 173.92 491.887 173.341 491.887 172.626V157.539Z" fill="black"/>
<path d="M532.73 146.757H558.164C558.878 146.757 559.457 147.336 559.457 148.051V152.792H534.024C533.309 152.792 532.73 152.213 532.73 151.499V146.757Z" fill="black"/>
<path d="M532.73 158.832C532.73 158.118 533.309 157.539 534.024 157.539H558.164C558.878 157.539 559.457 158.118 559.457 158.832V162.28C559.457 162.995 558.878 163.574 558.164 163.574H534.024C533.309 163.574 532.73 162.995 532.73 162.28V158.832Z" fill="black"/>
<path d="M532.73 169.173C532.73 168.459 533.309 167.88 534.024 167.88H558.164C558.878 167.88 559.457 168.459 559.457 169.173V173.915H534.024C533.309 173.915 532.73 173.336 532.73 172.622V169.173Z" fill="black"/>
<path d="M532.73 157.539H538.766V173.92H534.024C533.309 173.92 532.73 173.341 532.73 172.626V157.539Z" fill="black"/>
<path d="M451.043 149.344C451.043 147.915 452.201 146.757 453.63 146.757H476.476C477.191 146.757 477.77 147.336 477.77 148.051V152.792H451.043V149.344Z" fill="black"/>
<path d="M451.043 158.832C451.043 158.118 451.622 157.539 452.336 157.539H476.476C477.191 157.539 477.77 158.118 477.77 158.832V162.28C477.77 162.995 477.191 163.574 476.476 163.574H452.336C451.622 163.574 451.043 162.995 451.043 162.28V158.832Z" fill="black"/>
<path d="M451.043 167.88H476.476C477.191 167.88 477.77 168.459 477.77 169.173V173.915H452.336C451.622 173.915 451.043 173.336 451.043 172.622V167.88Z" fill="black"/>
<path d="M451.043 152.791H457.078V163.136H452.336C451.622 163.136 451.043 162.557 451.043 161.843V152.791Z" fill="black"/>
<path d="M471.726 157.539H476.467C477.182 157.539 477.761 158.118 477.761 158.832V172.626C477.761 173.341 477.182 173.92 476.467 173.92H473.019C472.305 173.92 471.726 173.341 471.726 172.626V157.539Z" fill="black"/>
<path d="M369.829 169.197C369.829 168.482 370.408 167.903 371.122 167.903H395.263C395.977 167.903 396.556 168.482 396.556 169.197V173.938H371.122C370.408 173.938 369.829 173.359 369.829 172.645V169.197Z" fill="black"/>
<path d="M369.829 148.074C369.829 147.36 370.408 146.781 371.122 146.781H375.864V173.939H371.122C370.408 173.939 369.829 173.36 369.829 172.645V148.074Z" fill="black"/>
<path d="M410.686 148.074C410.686 147.36 411.265 146.781 411.979 146.781H431.377C434.71 146.781 437.412 149.483 437.412 152.816H411.979C411.265 152.816 410.686 152.237 410.686 151.523V148.074Z" fill="black"/>
<path d="M410.686 167.903H437.412V172.645C437.412 173.359 436.833 173.938 436.119 173.938H410.686V167.903Z" fill="black"/>
<path d="M431.367 152.814H437.402V167.902H431.367V152.814Z" fill="black"/>
<path d="M410.686 157.562H416.721V173.943H410.686V157.562Z" fill="black"/>
<path d="M286.59 148.074C286.59 147.36 287.169 146.781 287.883 146.781H307.282C310.615 146.781 313.317 149.483 313.317 152.816H287.883C287.169 152.816 286.59 152.237 286.59 151.523V148.074Z" fill="black"/>
<path d="M292.658 167.903H313.35V172.645C313.35 173.359 312.771 173.938 312.057 173.938H292.658V167.903Z" fill="black"/>
<path d="M307.272 152.814H313.308V167.902H307.272V152.814Z" fill="black"/>
<path d="M286.59 148.074C286.59 147.36 287.169 146.781 287.883 146.781H292.625V173.939C289.292 173.939 286.59 171.237 286.59 167.904V148.074Z" fill="black"/>
<path d="M573.586 148.039C573.586 147.325 574.165 146.746 574.879 146.746H579.621V172.611C579.621 173.325 579.042 173.904 578.328 173.904H573.586V148.039Z" fill="black"/>
<path d="M583.082 160.11H589.654L600.325 173.904H593.979C593.57 173.904 593.185 173.711 592.941 173.382L583.082 160.11Z" fill="black"/>
<path d="M583.082 160.11H589.654L600.325 146.746H593.967C593.565 146.746 593.185 146.934 592.941 147.253L583.082 160.11Z" fill="black"/>
<path d="M272.463 149.404L272.463 172.655C272.463 173.369 271.884 173.948 271.17 173.948L267.067 173.948L256.082 163.715L245.532 173.948L241.425 173.948C240.711 173.948 240.132 173.369 240.132 172.655L240.132 149.377C240.132 147.948 241.29 146.79 242.719 146.79L246.328 146.79L246.328 163.715L253.025 157.566L259.57 157.566L266.267 163.748L266.267 146.818L269.876 146.818C271.305 146.818 272.463 147.976 272.463 149.404Z" fill="black"/>
<path d="M327.48 146.781H348.959C351.858 146.781 354.207 149.13 354.207 152.029C354.207 152.463 353.855 152.816 353.42 152.816H327.48V146.781Z" fill="black"/>
<path d="M327.48 162.302C327.48 163.016 328.059 163.595 328.774 163.595H349.125C351.932 163.595 354.207 161.32 354.207 158.513C354.207 157.987 353.781 157.56 353.254 157.56H328.774C328.059 157.56 327.48 158.139 327.48 158.853V162.302Z" fill="black"/>
<path d="M327.48 157.562H333.516V173.943H328.774C328.059 173.943 327.48 173.364 327.48 172.65V157.562Z" fill="black"/>
<path d="M342.569 163.155H349.251L355.717 173.932H349.362C348.894 173.932 348.463 173.679 348.234 173.271L342.569 163.155Z" fill="black"/>
<rect x="348.604" y="151.969" width="5.60401" height="6.89724" fill="black"/>
</svg>
